<?xml version="1.0" encoding="UTF-8" standalone="no"?>
<!-- Created with Inkscape (http://www.inkscape.org/) -->

<svg
   width="11.78873mm"
   height="13.31821mm"
   viewBox="0 0 11.78873 13.31821"
   version="1.1"
   id="svg127"
   inkscape:version="1.1.1 (3bf5ae0d25, 2021-09-20)"
   sodipodi:docname="white-logo.svg"
   xmlns:inkscape="http://www.inkscape.org/namespaces/inkscape"
   xmlns:sodipodi="http://sodipodi.sourceforge.net/DTD/sodipodi-0.dtd"
   xmlns="http://www.w3.org/2000/svg"
   xmlns:svg="http://www.w3.org/2000/svg">
  <sodipodi:namedview
     id="namedview129"
     pagecolor="#ffffff"
     bordercolor="#666666"
     borderopacity="1.0"
     inkscape:pageshadow="2"
     inkscape:pageopacity="0.0"
     inkscape:pagecheckerboard="0"
     inkscape:document-units="mm"
     showgrid="false"
     fit-margin-top="0"
     fit-margin-left="0"
     fit-margin-right="0"
     fit-margin-bottom="0"
     inkscape:zoom="11.075084"
     inkscape:cx="15.530356"
     inkscape:cy="30.925273"
     inkscape:window-width="1920"
     inkscape:window-height="1022"
     inkscape:window-x="0"
     inkscape:window-y="0"
     inkscape:window-maximized="1"
     inkscape:current-layer="layer1"
     inkscape:lockguides="false" />
  <defs
     id="defs124">
    <inkscape:path-effect
       effect="join_type"
       id="path-effect846"
       is_visible="true"
       lpeversion="1"
       linecap_type="peak"
       line_width="0.150272"
       linejoin_type="extrp_arc"
       miter_limit="100"
       attempt_force_join="true" />
    <inkscape:path-effect
       effect="fill_between_many"
       method="bsplinespiro"
       linkedpaths="#use16132,0,1"
       id="path-effect848" />
  </defs>
  <g
     inkscape:label="Layer 1"
     inkscape:groupmode="layer"
     id="layer1"
     transform="translate(-114.8933,-105.71929)">
    <path
       id="use16132"
       style="fill:#f2221c;fill-opacity:1;fill-rule:nonzero;stroke:#f2221c;stroke-width:0.0397595;stroke-linecap:butt;stroke-linejoin:miter;stroke-opacity:1"
       d="m 117.02966,105.71929 c 0.0313,0.37156 0.092,0.73552 0.263,1.07099 0.32986,0.21463 0.009,0.19593 -0.21266,0.21253 -0.5763,0.063 -1.16699,0.2561 -1.62839,0.60359 -0.19432,0.22741 0.0221,0.51058 0.0433,0.76725 0.20084,0.88124 0.4386,1.76097 0.61656,2.64314 -0.40605,2.6405 -0.81211,5.28101 -1.21817,7.92151 2.27069,-0.10804 4.54186,-0.24226 6.81225,-0.33398 1.65883,0.14439 3.31765,0.28879 4.97648,0.43318 -0.31838,-1.79886 -0.66468,-3.59683 -0.96563,-5.39625 0.24762,-2.14374 0.49525,-4.28749 0.74287,-6.43123 -1.00681,0.23666 -2.01361,0.47332 -3.02042,0.70998 -0.23867,-0.35044 -0.50285,-0.69286 -0.89831,-0.87464 -0.69027,-0.38017 -1.44511,-0.63398 -2.18739,-0.89107 -0.8579,-0.21626 -1.73653,-0.32915 -2.62023,-0.35677 -0.23674,-0.01 -0.47113,-0.0285 -0.70326,-0.0782 z m 0.65333,0.48927 c 1.00123,0.31551 2.01317,0.59122 3.03334,0.8381 0.32726,0.0829 0.67817,0.10276 0.94917,0.33056 0.28553,0.0349 0.50143,0.23431 0.75113,0.35599 0.14931,0.14574 0.34226,0.26686 0.31605,0.50369 -0.0515,0.2596 0.2099,0.2949 0.39839,0.32941 0.42088,0.0775 0.79506,0.27761 1.14021,0.52352 0.1227,0.16797 0.11221,0.43263 0.1452,0.64362 -0.097,0.31165 -0.0651,0.72488 -0.37687,0.9169 -0.207,-0.0687 -0.43623,-0.20744 -0.53047,0.0788 -0.0759,0.1475 -0.2074,0.44778 -0.32794,0.44539 -0.0467,-0.20732 -0.0969,-0.44889 -0.21741,-0.61267 -0.22358,-0.10037 -0.46635,-0.14725 -0.67516,-0.28193 0.0617,-0.20531 0.14504,-0.45286 -0.0748,-0.58806 -0.39177,-0.15923 -0.84316,-0.156 -1.25199,-0.12074 -0.31849,0.185 -0.67714,0.37967 -0.77443,0.76544 -0.11918,0.3759 0.17494,0.73079 0.43027,0.97494 0.33407,0.29891 0.80378,0.34802 1.21454,0.49248 0.18442,-0.006 0.59424,-0.18312 0.36289,0.12709 -0.0927,0.31269 -0.20774,0.6198 -0.33679,0.9204 -0.34276,0.12007 -0.7209,0.1242 -1.07609,0.14659 -0.18367,-0.0996 -0.51273,-0.06 -0.51989,-0.32875 -0.097,-0.34005 -0.17301,-0.68859 -0.37107,-0.98773 -0.23962,-0.0665 -0.3503,0.21133 -0.55118,0.29061 -0.089,0.10416 -0.16157,0.64112 -0.26561,0.34589 -0.12567,-0.16793 -0.15948,-0.46737 -0.34765,-0.54582 -0.27747,0.0514 -0.42803,0.37099 -0.5881,0.5858 -0.17082,0.36662 -0.17648,0.79221 -0.28014,1.18281 -0.13089,0.3021 0.008,0.34941 0.24036,0.15798 0.20917,-0.11353 0.28608,-0.32004 0.2295,-0.54707 -0.0421,-0.26953 0.20363,-0.38539 0.31862,-0.10137 0.13985,0.26192 0.3324,-0.12175 0.49933,-0.19165 0.14547,-0.0526 0.41095,-0.48234 0.44531,-0.18591 0.089,0.30736 0.17799,0.61471 0.26699,0.92206 0.50844,0.1012 1.04617,0.13978 1.55411,0.0427 0.43042,-0.22874 0.89963,-0.51542 1.03,-1.01824 0.087,-0.24145 0.08,-0.50462 0.063,-0.75787 0.22694,-0.14613 0.43452,-0.27165 0.21141,0.061 -0.0541,0.12492 0.11611,0.56965 0.2239,0.2559 0.2043,-0.2324 0.37371,-0.52016 0.59916,-0.71898 0.29304,-0.0407 0.57853,-0.13577 0.76319,-0.38177 0.28005,-0.22514 0.31198,-0.60367 0.43217,-0.92135 0.10298,-0.30868 0.13867,-0.63161 0.18715,-0.95182 -0.3612,-0.31317 -0.72241,-0.62633 -1.08361,-0.9395 0.68386,-0.15448 1.36771,-0.30895 2.05157,-0.46343 -0.2501,1.99259 -0.52844,3.98576 -0.7609,5.97798 0.26988,1.57914 0.53975,3.15828 0.80963,4.73742 -1.57493,-0.18024 -3.14938,-0.37723 -4.72461,-0.54704 -1.88218,0.11113 -3.76435,0.22225 -5.64653,0.33337 0.33694,-2.59298 0.67388,-5.18595 1.01082,-7.77893 -0.20183,-0.9033 -0.40366,-1.80659 -0.60549,-2.70989 0.67534,-0.17424 1.35069,-0.34848 2.02603,-0.52272 0.20133,-0.22471 0.0259,-0.38022 -0.16126,-0.53356 -0.11465,-0.17756 -0.22866,-0.32872 -0.15539,-0.54967 z m 3.80524,3.80112 c 0.40182,-0.10392 0.57232,0.27856 0.51811,0.60481 -0.0303,0.29739 0.37275,0.3283 0.59118,0.35431 0.33491,0.0951 -0.0157,0.44193 -0.23258,0.41933 -0.39996,-0.0883 -0.84245,-0.0895 -1.17668,-0.36527 -0.26879,-0.14287 -0.51395,-0.39808 -0.41111,-0.73205 0.11656,-0.22385 0.4957,-0.24228 0.71108,-0.28113 z"
       inkscape:linked-fill="path850" />
    <path
       d="m 120.31869,114.66019 c -0.22812,0.24181 -0.272,0.58876 -0.29709,0.90577 -0.0236,0.40863 -0.0424,0.82153 0.0141,1.22832 0.0366,0.24589 0.12639,0.50031 0.31843,0.66762 0.15716,0.10967 0.36068,0.0218 0.49173,-0.0891 0.0977,-0.0823 0.20458,-0.18314 0.19765,-0.32232 0.0136,-0.20813 -0.0375,-0.42722 0.0432,-0.62624 0.0831,-0.081 0.0843,-0.22359 -0.0661,-0.19732 -0.103,0.009 -0.23603,-0.0315 -0.32042,0.0324 0.066,0.20524 0.0607,0.42614 0.0633,0.63997 -0.01,0.10229 0.0109,0.22094 -0.0487,0.30942 -0.0942,0.0823 -0.27715,0.0617 -0.31726,-0.069 -0.10226,-0.26369 -0.11789,-0.55134 -0.13692,-0.83072 -0.0134,-0.40492 -0.0127,-0.81704 0.0855,-1.21255 0.0386,-0.12473 0.0826,-0.2796 0.21683,-0.33117 0.1355,-0.0298 0.18481,0.14087 0.22486,0.23701 0.061,0.15007 0.0682,0.31884 0.14759,0.46131 0.11453,0.10823 0.0781,-0.15856 0.0651,-0.22078 -0.0252,-0.17895 -0.0193,-0.36221 -0.0578,-0.53893 -0.0584,-0.0974 -0.20908,-0.0712 -0.29054,-0.1524 -0.11962,-0.0303 -0.25005,0.0255 -0.33351,0.10873 z"
       id="path4-6"
       style="stroke-width:0.00430969;fill:#ffffff" />
    <path
       d="m 117.01316,114.6214 c -0.0948,0.004 -0.18963,0.009 -0.28445,0.013 -0.0163,0.24717 -0.0527,0.49418 -0.0431,0.74214 0.0877,0.0867 0.12357,-0.12198 0.13236,-0.18832 0.018,-0.11361 0.0302,-0.25207 0.1337,-0.32267 0.1408,-0.0646 0.15168,0.11917 0.14889,0.2122 0.011,0.53472 -0.004,1.06964 -0.012,1.60433 -0.009,0.18863 6.6e-4,0.38179 -0.0496,0.56534 -0.0205,0.0691 -0.15588,0.20424 -0.0386,0.2406 0.17895,0.0202 0.36072,-6.8e-4 0.53766,-0.029 0.13808,-0.0406 -0.015,-0.18913 -0.0965,-0.20859 -0.0276,-0.0202 -0.0892,-0.0187 -0.0751,-0.0654 0.005,-0.77264 0.0125,-1.54526 0.0218,-2.31786 0.0819,0.004 0.18878,-0.0209 0.23649,0.0657 0.0763,0.14134 0.0436,0.31421 0.11431,0.45704 0.0668,0.0346 0.0452,-0.13314 0.0564,-0.18228 0.003,-0.18166 0.0116,-0.36836 -0.0348,-0.54536 -0.0889,-0.0635 -0.21784,-0.038 -0.32402,-0.049 -0.14098,-0.002 -0.28358,0.003 -0.42334,0.008 z"
       id="path6-2"
       style="stroke-width:0.00430969;fill:#ffffff" />
    <path
       d="m 118.5862,114.64295 c -0.002,0.10012 0.11908,0.14757 0.13486,0.24366 0.038,0.21662 0.0197,0.43845 0.0227,0.65736 -0.01,0.49967 -0.005,0.99992 -0.0321,1.49906 -0.007,0.11302 -0.022,0.23143 -0.0946,0.32316 -0.0508,0.0556 -0.0427,0.11378 0.0419,0.0999 0.16867,0.0115 0.34155,0.0374 0.50858,0.002 0.11806,-0.0712 -0.0735,-0.16305 -0.1001,-0.23844 -0.0501,-0.1649 -0.0364,-0.34093 -0.0452,-0.51142 -0.01,-0.63267 -0.0149,-1.26541 -0.0223,-1.89811 0.0748,-0.0397 0.16746,-0.0599 0.21764,-0.1332 -0.051,-0.0651 -0.17702,-0.0451 -0.26003,-0.0608 -0.11938,-0.005 -0.24167,-0.0165 -0.35925,0.009 l -0.0121,0.008 z"
       id="path8-9"
       style="stroke-width:0.00430969;fill:#ffffff" />
    <path
       id="path52667"
       style="stroke-width:0.00430969;fill:#ffffff"
       d="m 122.26228,114.59127 c -0.11664,0.004 -0.23817,-0.007 -0.35033,0.031 -0.0635,0.0975 0.12156,0.16112 0.1281,0.25815 0.0357,0.23046 0.0169,0.46539 0.0202,0.69777 -0.008,0.49779 -0.002,0.99626 -0.0319,1.4934 0.002,0.11366 -0.0429,0.21535 -0.12102,0.29551 -0.039,0.1223 0.15761,0.0922 0.23494,0.10423 0.24691,0.005 0.49391,0.002 0.74086,0.003 -0.005,-0.21329 0.0137,-0.42855 -0.0214,-0.63994 -0.0174,-0.0469 -0.0243,-0.19779 -0.10318,-0.14133 -0.037,0.0363 -0.0279,0.0857 -0.018,0.13184 0.0124,0.12957 0.025,0.29922 -0.10721,0.37358 -0.0958,0.0715 -0.27618,0.0468 -0.28597,-0.0938 -0.0359,-0.24863 -0.02,-0.50131 -0.03,-0.75172 0.0163,-0.0811 -0.0413,-0.217 0.0363,-0.26094 0.11208,0.0491 0.14988,0.18122 0.22088,0.27209 0.0236,0.045 0.0791,0.15136 0.11915,0.0654 0.0198,-0.0831 -0.0533,-0.17057 -0.0596,-0.26214 -0.045,-0.1762 -0.0316,-0.35952 0.007,-0.53535 0.0259,-0.0715 0.0286,-0.25495 -0.0799,-0.14063 -0.0845,0.0866 0.0104,0.23182 -0.10926,0.30705 -0.083,0.0945 -0.17703,-0.002 -0.1492,-0.10161 0.005,-0.28785 0.0149,-0.57615 0.04,-0.86301 0.0499,-0.0831 0.20015,0.0182 0.25505,0.0802 0.0887,0.0986 0.12042,0.2305 0.15238,0.35529 0.0618,0.10778 0.0772,-0.11077 0.0767,-0.15602 3.6e-4,-0.13711 0.007,-0.27676 -0.0205,-0.41166 -0.033,-0.11192 -0.17027,-0.10583 -0.26467,-0.11087 -0.0924,-0.002 -0.18897,-0.002 -0.27908,5.4e-4 z" />
    <path
       d="m 123.64578,114.61709 c -0.005,0.10761 0.1354,0.1632 0.1384,0.27488 0.039,0.28239 0.027,0.56897 0.0357,0.85331 6.6e-4,0.4135 0.0208,0.8276 -0.001,1.24077 0.002,0.1558 -0.1008,0.27866 -0.1527,0.41782 -0.0151,0.10199 0.17475,0.062 0.24377,0.0852 0.10332,-0.0127 0.2994,0.0595 0.3366,-0.0691 -0.0363,-0.10668 -0.11843,-0.19473 -0.13453,-0.3098 -0.0486,-0.26031 -0.0514,-0.52662 -0.0628,-0.79051 -0.0181,-0.0651 0.0229,-0.17349 0.0748,-0.0704 0.17054,0.35883 0.22774,0.75806 0.37538,1.12532 0.0319,0.12311 0.16022,0.16077 0.27297,0.14201 0.0896,-0.0641 -0.0117,-0.20638 -0.0216,-0.29727 -0.10939,-0.3645 -0.24193,-0.723 -0.32397,-1.09507 0.002,-0.16026 0.14975,-0.26757 0.1791,-0.42081 0.0723,-0.28878 0.0569,-0.60451 -0.0562,-0.88087 -0.0419,-0.0967 -0.11502,-0.19724 -0.23014,-0.20336 -0.20693,-0.0329 -0.41993,-0.0488 -0.62822,-0.0206 -0.016,0.004 -0.0328,0.007 -0.0456,0.0185 z m 0.64645,0.27151 c 0.0771,0.16728 0.082,0.35741 0.0896,0.53872 0.004,0.17385 -0.0166,0.3674 -0.1435,0.49776 -0.11053,0.0865 -0.19138,-0.0733 -0.18064,-0.17012 -0.0165,-0.27849 -0.0148,-0.55829 -0.005,-0.83699 -0.024,-0.15913 0.18893,-0.13609 0.23899,-0.0294 z"
       id="path12-1"
       style="stroke-width:0.00430969;fill:#ffffff" />
  </g>
</svg>
